<?xml version="1.0" standalone="no"?>
<!DOCTYPE svg PUBLIC "-//W3C//DTD SVG 20010904//EN"
 "http://www.w3.org/TR/2001/REC-SVG-20010904/DTD/svg10.dtd">
<svg version="1.0" xmlns="http://www.w3.org/2000/svg"
 width="1181.000000pt" height="1181.000000pt" viewBox="0 0 1181.000000 1181.000000"
 preserveAspectRatio="xMidYMid meet">
<metadata>
Created by potrace 1.14, written by Peter Selinger 2001-2017
</metadata>
<g transform="translate(0.000000,1181.000000) scale(0.100000,-0.100000)"
fill="#000000" stroke="none">
<path d="M8305 9159 c-154 -17 -179 -21 -258 -35 -45 -8 -95 -18 -112 -20
-115 -20 -377 -99 -538 -163 -558 -221 -1068 -614 -1422 -1095 l-58 -80 -21
26 c-12 15 -37 48 -56 74 -156 214 -420 476 -645 642 -38 28 -74 55 -80 59
-109 86 -579 343 -627 343 -8 0 -18 4 -23 9 -24 22 -397 139 -503 157 -15 3
-40 9 -57 14 -32 9 -127 25 -210 35 -27 4 -60 8 -73 10 -118 19 -457 25 -627
10 -132 -11 -134 -11 -180 -18 -22 -4 -60 -9 -85 -12 -37 -5 -89 -16 -235 -49
-5 -1 -26 -6 -45 -10 -70 -15 -297 -90 -400 -131 -296 -119 -576 -283 -830
-486 -102 -81 -345 -315 -426 -409 -177 -208 -346 -463 -459 -695 -27 -55 -50
-102 -50 -105 0 -3 -11 -27 -24 -55 -54 -121 -149 -412 -176 -543 -2 -9 -8
-37 -13 -62 -6 -25 -13 -63 -16 -85 -4 -23 -9 -52 -11 -65 -3 -14 -8 -47 -11
-75 -3 -27 -7 -61 -10 -75 -9 -56 -18 -233 -18 -355 0 -219 16 -405 48 -570 2
-11 7 -40 11 -65 33 -207 158 -578 274 -809 391 -777 1055 -1361 1866 -1638
108 -37 335 -99 400 -109 22 -3 42 -7 45 -9 7 -5 200 -31 300 -42 150 -16 575
-9 710 12 14 2 45 7 70 10 25 3 52 8 60 10 8 2 32 6 52 9 20 3 77 15 125 25
555 124 1064 394 1495 792 125 115 110 101 188 189 36 40 72 81 80 89 20 21
162 204 175 226 8 13 21 2 73 -70 189 -255 473 -537 707 -701 205 -143 313
-207 505 -300 245 -119 577 -229 784 -260 22 -3 43 -7 46 -9 6 -3 53 -11 125
-20 28 -4 61 -8 75 -10 131 -20 501 -26 650 -12 159 16 274 33 400 59 30 6 60
12 65 14 6 1 30 7 55 14 25 7 55 14 66 16 22 4 228 69 254 81 8 3 20 7 25 9
70 19 367 159 499 236 205 119 432 289 597 446 l47 44 38 -18 c22 -11 41 -19
44 -20 3 0 21 -7 40 -16 30 -13 104 -40 120 -43 3 -1 25 -7 50 -14 127 -36
253 -54 390 -54 77 0 202 10 233 19 16 5 17 138 17 2615 l0 2609 -720 0 -721
0 -55 35 c-30 19 -57 35 -59 35 -3 0 -22 11 -43 23 -41 26 -211 113 -282 145
-107 48 -349 138 -357 134 -2 -1 -22 6 -45 14 -40 14 -244 65 -313 78 -58 11
-131 22 -200 31 -27 3 -66 8 -85 11 -58 9 -550 12 -625 3z"/>
</g>
</svg>
